<svg xmlns="http://www.w3.org/2000/svg" width="24" height="24" viewBox="0 0 24 24" fill="none"><path d="M8.1 1.561c-1.326.11-2.32.569-3.193 1.477A4.612 4.612 0 0 0 3.612 5.64c-.067.428-.072.85-.072 6.02 0 4.354.012 5.664.053 6.04.172 1.556.519 2.428 1.287 3.236.855.899 1.783 1.296 3.44 1.471.712.075 6.648.075 7.36 0 1.015-.107 1.676-.279 2.288-.594 1.217-.627 2.027-1.794 2.328-3.353.134-.695.155-1.141.173-3.728.017-2.534.016-2.617-.065-2.94a2.997 2.997 0 0 0-1.984-2.139c-.316-.106-.337-.107-1.82-.135-1.703-.031-1.83-.049-2.42-.336a2.969 2.969 0 0 1-1.536-1.778c-.12-.368-.164-.954-.164-2.196 0-1.27-.03-1.473-.303-2.028-.392-.799-1.162-1.412-2.005-1.597-.31-.068-1.381-.079-2.072-.022m5.58.183c0 .013.034.071.075.13.234.332.529 1.082.648 1.649.077.367.091.589.112 1.86l.025 1.444.121.195c.075.121.196.242.317.317l.195.121 1.444.025c1.507.027 1.764.053 2.375.241.31.096.952.389 1.13.516.068.048.132.077.143.066.029-.029-.124-.562-.25-.872a7.162 7.162 0 0 0-1.404-2.216c-.654-.717-2-2.016-2.397-2.315a7.491 7.491 0 0 0-2.066-1.069c-.353-.115-.468-.138-.468-.092m-1.121 10.318c.469.111.825.314 1.191.679.271.27.359.39.486.664.2.433.258.692.254 1.135-.008.832-.405 1.509-1.27 2.165-.154.116-.36.305-.457.419-.214.25-.448.364-.758.367-.573.005-1.046-.499-.996-1.06.038-.438.277-.764.925-1.265.226-.174.441-.363.478-.42.147-.224.053-.567-.186-.681-.266-.126-.495-.046-.704.244-.375.523-1.07.586-1.518.139a.858.858 0 0 1-.245-.388c-.134-.471-.001-.824.498-1.324a2.355 2.355 0 0 1 1.166-.672 2.877 2.877 0 0 1 1.136-.002m-.047 6.085a.995.995 0 1 1-1.381 1.342c-.095-.161-.111-.233-.111-.489s.016-.328.111-.489a.955.955 0 0 1 .941-.496.836.836 0 0 1 .44.132" fill="#10161F" fill-rule="evenodd"/></svg>