<svg xmlns="http://www.w3.org/2000/svg" width="24" height="24" viewBox="0 0 24 24" fill="none"><path d="M6.503 2.042A3.025 3.025 0 0 0 4.298 3.74c-.24.511-.279.705-.275 1.38a6.598 6.598 0 0 0 .735 3.035c.376.749.668 1.132 1.681 2.206.981 1.04 1.343 1.457 1.447 1.669l.094.19.022 3.62c.021 3.563.023 3.625.108 3.931.149.533.379.921.788 1.332.305.307.422.393.742.551.613.303.762.323 2.36.323 1.565 0 1.741-.022 2.3-.291a3.003 3.003 0 0 0 1.591-1.921c.084-.298.086-.383.107-3.925l.022-3.62.094-.19c.105-.214.471-.635 1.467-1.689.984-1.041 1.289-1.442 1.659-2.18.461-.919.689-1.798.745-2.871.033-.619-.046-1.055-.281-1.55a2.935 2.935 0 0 0-1.408-1.428c-.653-.314-.125-.289-6.176-.297-2.981-.003-5.509.008-5.617.027m11.173 3.01c.291.102.351.35.227.935-.104.494-.231.819-.356.91l-.113.083H12c-6.305 0-5.585.061-5.766-.486-.145-.44-.235-.986-.19-1.152a.417.417 0 0 1 .302-.301c.189-.057 11.168-.046 11.33.011m-5.336 6.014c.253.087.507.341.594.594.098.288.098 2.392 0 2.68-.246.722-1.256.878-1.723.266-.204-.268-.216-.374-.203-1.698l.012-1.208.111-.189a.987.987 0 0 1 1.209-.445" fill="#10161F" fill-rule="evenodd"/></svg>