<svg xmlns="http://www.w3.org/2000/svg" width="24" height="24" viewBox="0 0 24 24" fill="none"><path d="M11.78 2.024c-.741.11-1.5.347-3.06.955-2.299.897-2.823 1.151-3.441 1.665-.479.398-.913 1.114-1.078 1.777-.173.7-.174.718-.19 6.769L3.996 19h-.571c-.684 0-.879.052-1.126.299a.984.984 0 0 0 0 1.402c.326.326-.563.299 9.701.299 10.264 0 9.375.027 9.701-.299a.984.984 0 0 0 0-1.402c-.247-.247-.442-.299-1.128-.299H20v-2.912c0-1.703-.018-3.133-.043-3.444-.076-.949-.279-1.501-.736-1.994-.445-.48-.954-.743-1.923-.991-.903-.232-1.167-.185-1.255.223-.029.138-.043 1.563-.043 4.47 0 4.163-.002 4.271-.078 4.396a.478.478 0 0 1-.67.174c-.266-.163-.246.367-.263-7.006-.016-7.249-.012-7.102-.232-7.914-.25-.918-.933-1.641-1.797-1.9-.216-.065-.943-.113-1.18-.078" fill="#10161F" fill-rule="evenodd"/></svg>