<svg xmlns="http://www.w3.org/2000/svg" width="24" height="24" viewBox="0 0 24 24" fill="none"><path d="M10.8 2.041c-1.601.197-2.962.882-4.051 2.039-.763.81-1.246 1.708-1.566 2.909-.238.895-.487 1.334-1.058 1.871-1.177 1.105-1.498 1.543-1.839 2.509-.343.974-.36 2.18-.042 3.155.552 1.697 1.926 2.941 3.716 3.364.466.11 2.491.155 2.62.059.075-.057.08-.107.08-.774v-.713l.194-.7c.216-.778.411-1.226.684-1.569a3.213 3.213 0 0 1 1.642-1.055c.415-.106 1.069-.098 1.478.018 1.326.376 2.225 1.544 2.221 2.882-.002.41-.032.583-.238 1.354-.112.418-.123.499-.077.555.049.058.167.063 1.135.043.896-.018 1.149-.036 1.481-.107 2.413-.518 4.19-2.301 4.705-4.721.129-.606.129-1.716 0-2.32-.334-1.562-1.182-2.86-2.464-3.77a9.376 9.376 0 0 0-.741-.43c-.836-.442-1.14-.724-1.637-1.52-1.018-1.627-2.589-2.694-4.443-3.017-.459-.08-1.388-.112-1.8-.062m.885 13.043a1.046 1.046 0 0 0-.67.486c-.09.172-.375 1.27-.375 1.444 0 .367.251.762.578.911.433.196 1.012.019 1.263-.387.106-.172.398-1.278.399-1.509.001-.611-.573-1.065-1.195-.945m-1.096 3.853a.982.982 0 0 0-.578.449c-.115.206-.412 1.302-.409 1.513.01.956 1.288 1.334 1.815.538.139-.209.422-1.262.423-1.567a.966.966 0 0 0-.696-.931c-.235-.07-.302-.07-.555-.002" fill="#10161F" fill-rule="evenodd"/></svg>