<svg xmlns="http://www.w3.org/2000/svg" width="24" height="24" viewBox="0 0 24 24" fill="none"><path d="M10.8 2.041c-1.601.197-2.962.882-4.051 2.039-.763.81-1.246 1.708-1.566 2.909-.236.885-.487 1.334-1.037 1.851-.735.692-1.063 1.037-1.254 1.32a5.188 5.188 0 0 0-.799 1.912c-.096.485-.095 1.43.003 1.886.337 1.568 1.283 2.807 2.677 3.505.508.254.661.272.979.114.488-.244.818-.879.745-1.437a2.728 2.728 0 0 0-.159-.526c-.518-1.26-.431-2.566.246-3.701.384-.642 1.151-1.305 1.846-1.594.586-.245.844-.293 1.57-.293.55 0 .712.014.971.086.774.213 1.337.548 1.929 1.149.629.639.747.694 1.6.741 1.102.06 1.857.385 2.522 1.083.418.439.661.86.845 1.463.095.315.107.415.107.952 0 .537-.012.637-.107.952a3.839 3.839 0 0 1-.475 1.019c-.145.211-.125.329.055.329.199 0 .82-.229 1.314-.484 1.616-.835 2.734-2.322 3.124-4.156.129-.606.129-1.716 0-2.32a5.847 5.847 0 0 0-.482-1.424c-.587-1.234-1.497-2.15-2.795-2.815-.726-.371-1.082-.708-1.565-1.481-1.018-1.627-2.589-2.694-4.443-3.017-.459-.08-1.388-.112-1.8-.062M9.58 12.047c-.543.104-1.128.563-1.373 1.078-.578 1.214.167 2.637 1.488 2.842a1.99 1.99 0 0 0 2.272-1.662 1.937 1.937 0 0 0-.563-1.709c-.491-.49-1.127-.682-1.824-.549m4.57 1.994a1.618 1.618 0 0 0-1.017.859c-.096.207-.112.29-.111.6 0 .309.016.395.112.604.141.309.45.617.766.763.207.096.29.112.6.111.309 0 .395-.016.604-.112.309-.141.617-.45.763-.766.096-.207.112-.29.111-.6 0-.309-.016-.395-.112-.604a1.67 1.67 0 0 0-.756-.757c-.258-.117-.703-.163-.96-.098m-5 3a1.618 1.618 0 0 0-1.017.859c-.096.207-.112.29-.111.6 0 .309.016.395.112.604.141.309.45.617.766.763.207.096.29.112.6.111.309 0 .395-.016.604-.112.309-.141.617-.45.763-.766.096-.207.112-.29.111-.6 0-.309-.016-.395-.112-.604a1.67 1.67 0 0 0-.756-.757c-.258-.117-.703-.163-.96-.098m4.43 1.006c-.543.104-1.128.563-1.373 1.078-.578 1.214.167 2.637 1.488 2.842a1.99 1.99 0 0 0 2.272-1.662 1.937 1.937 0 0 0-.563-1.709c-.491-.49-1.127-.682-1.824-.549" fill="#10161F" fill-rule="evenodd"/></svg>