<svg width="24" height="24" viewBox="0 0 24 24" fill="none" xmlns="http://www.w3.org/2000/svg">
<g clip-path="url(#paint0_angular_5131_215093_clip_path)" data-figma-skip-parse="true"><g transform="matrix(0.00288269 -0.0095 -0.00912853 -0.003 12.0001 12)"><foreignObject x="-1259.45" y="-1259.45" width="2518.9" height="2518.9"><div xmlns="http://www.w3.org/1999/xhtml" style="background:conic-gradient(from 90deg,rgba(16, 22, 31, 1) 0deg,rgba(16, 22, 31, 1) 114.101deg,rgba(16, 22, 31, 0) 360deg);height:100%;width:100%;opacity:1"></div></foreignObject></g></g><path d="M12.0001 6C13.1046 6 14.0001 5.10457 14.0001 4C14.0001 2.89543 13.1046 2 12.0001 2C10.8955 2 10.0001 2.89543 10.0001 4C10.0001 5.10457 10.8955 6 12.0001 6Z" data-figma-gradient-fill="{&#34;type&#34;:&#34;GRADIENT_ANGULAR&#34;,&#34;stops&#34;:[{&#34;color&#34;:{&#34;r&#34;:0.062745101749897003,&#34;g&#34;:0.086274512112140656,&#34;b&#34;:0.12156862765550613,&#34;a&#34;:1.0},&#34;position&#34;:0.0},{&#34;color&#34;:{&#34;r&#34;:0.062745101749897003,&#34;g&#34;:0.086274512112140656,&#34;b&#34;:0.12156862765550613,&#34;a&#34;:1.0},&#34;position&#34;:0.31694820523262024},{&#34;color&#34;:{&#34;r&#34;:0.062745101749897003,&#34;g&#34;:0.086274512112140656,&#34;b&#34;:0.12156862765550613,&#34;a&#34;:0.0},&#34;position&#34;:1.0}],&#34;stopsVar&#34;:[],&#34;transform&#34;:{&#34;m00&#34;:5.7653865814208984,&#34;m01&#34;:-18.257059097290039,&#34;m02&#34;:18.245897293090820,&#34;m10&#34;:-19.0,&#34;m11&#34;:-5.9999995231628418,&#34;m12&#34;:24.500001907348633},&#34;opacity&#34;:1.0,&#34;blendMode&#34;:&#34;NORMAL&#34;,&#34;visible&#34;:true}"/>
<g clip-path="url(#paint1_angular_5131_215093_clip_path)" data-figma-skip-parse="true"><g transform="matrix(0.00288269 -0.0095 -0.00912853 -0.003 12.0001 12)"><foreignObject x="-1259.45" y="-1259.45" width="2518.9" height="2518.9"><div xmlns="http://www.w3.org/1999/xhtml" style="background:conic-gradient(from 90deg,rgba(16, 22, 31, 1) 0deg,rgba(16, 22, 31, 1) 114.101deg,rgba(16, 22, 31, 0) 360deg);height:100%;width:100%;opacity:1"></div></foreignObject></g></g><path d="M8.47334 7.14582C9.36696 6.49657 9.56505 5.24584 8.9158 4.35222C8.26656 3.4586 7.01582 3.26051 6.1222 3.90976C5.22858 4.55901 5.03049 5.80975 5.67974 6.70336C6.32899 7.59698 7.57973 7.79507 8.47334 7.14582Z" data-figma-gradient-fill="{&#34;type&#34;:&#34;GRADIENT_ANGULAR&#34;,&#34;stops&#34;:[{&#34;color&#34;:{&#34;r&#34;:0.062745101749897003,&#34;g&#34;:0.086274512112140656,&#34;b&#34;:0.12156862765550613,&#34;a&#34;:1.0},&#34;position&#34;:0.0},{&#34;color&#34;:{&#34;r&#34;:0.062745101749897003,&#34;g&#34;:0.086274512112140656,&#34;b&#34;:0.12156862765550613,&#34;a&#34;:1.0},&#34;position&#34;:0.31694820523262024},{&#34;color&#34;:{&#34;r&#34;:0.062745101749897003,&#34;g&#34;:0.086274512112140656,&#34;b&#34;:0.12156862765550613,&#34;a&#34;:0.0},&#34;position&#34;:1.0}],&#34;stopsVar&#34;:[],&#34;transform&#34;:{&#34;m00&#34;:5.7653865814208984,&#34;m01&#34;:-18.257059097290039,&#34;m02&#34;:18.245897293090820,&#34;m10&#34;:-19.0,&#34;m11&#34;:-5.9999995231628418,&#34;m12&#34;:24.500001907348633},&#34;opacity&#34;:1.0,&#34;blendMode&#34;:&#34;NORMAL&#34;,&#34;visible&#34;:true}"/>
<g clip-path="url(#paint2_angular_5131_215093_clip_path)" data-figma-skip-parse="true"><g transform="matrix(0.00288269 -0.0095 -0.00912853 -0.003 12.0001 12)"><foreignObject x="-1259.45" y="-1259.45" width="2518.9" height="2518.9"><div xmlns="http://www.w3.org/1999/xhtml" style="background:conic-gradient(from 90deg,rgba(16, 22, 31, 1) 0deg,rgba(16, 22, 31, 1) 114.101deg,rgba(16, 22, 31, 0) 360deg);height:100%;width:100%;opacity:1"></div></foreignObject></g></g><path d="M5.0096 7.6257C6.0601 7.96703 6.63501 9.09534 6.29367 10.1458C5.95234 11.1964 4.82404 11.7713 3.77353 11.4299C2.72302 11.0886 2.14812 9.96028 2.48945 8.90978C2.83078 7.85927 3.95909 7.28437 5.0096 7.6257Z" data-figma-gradient-fill="{&#34;type&#34;:&#34;GRADIENT_ANGULAR&#34;,&#34;stops&#34;:[{&#34;color&#34;:{&#34;r&#34;:0.062745101749897003,&#34;g&#34;:0.086274512112140656,&#34;b&#34;:0.12156862765550613,&#34;a&#34;:1.0},&#34;position&#34;:0.0},{&#34;color&#34;:{&#34;r&#34;:0.062745101749897003,&#34;g&#34;:0.086274512112140656,&#34;b&#34;:0.12156862765550613,&#34;a&#34;:1.0},&#34;position&#34;:0.31694820523262024},{&#34;color&#34;:{&#34;r&#34;:0.062745101749897003,&#34;g&#34;:0.086274512112140656,&#34;b&#34;:0.12156862765550613,&#34;a&#34;:0.0},&#34;position&#34;:1.0}],&#34;stopsVar&#34;:[],&#34;transform&#34;:{&#34;m00&#34;:5.7653865814208984,&#34;m01&#34;:-18.257059097290039,&#34;m02&#34;:18.245897293090820,&#34;m10&#34;:-19.0,&#34;m11&#34;:-5.9999995231628418,&#34;m12&#34;:24.500001907348633},&#34;opacity&#34;:1.0,&#34;blendMode&#34;:&#34;NORMAL&#34;,&#34;visible&#34;:true}"/>
<g clip-path="url(#paint3_angular_5131_215093_clip_path)" data-figma-skip-parse="true"><g transform="matrix(0.00288269 -0.0095 -0.00912853 -0.003 12.0001 12)"><foreignObject x="-1259.45" y="-1259.45" width="2518.9" height="2518.9"><div xmlns="http://www.w3.org/1999/xhtml" style="background:conic-gradient(from 90deg,rgba(16, 22, 31, 1) 0deg,rgba(16, 22, 31, 1) 114.101deg,rgba(16, 22, 31, 0) 360deg);height:100%;width:100%;opacity:1"></div></foreignObject></g></g><path d="M6.29369 13.854C5.95236 12.8035 4.82405 12.2286 3.77354 12.5699C2.72304 12.9113 2.14813 14.0396 2.48946 15.0901C2.8308 16.1406 3.9591 16.7155 5.00961 16.3742C6.06012 16.0328 6.63502 14.9045 6.29369 13.854Z" data-figma-gradient-fill="{&#34;type&#34;:&#34;GRADIENT_ANGULAR&#34;,&#34;stops&#34;:[{&#34;color&#34;:{&#34;r&#34;:0.062745101749897003,&#34;g&#34;:0.086274512112140656,&#34;b&#34;:0.12156862765550613,&#34;a&#34;:1.0},&#34;position&#34;:0.0},{&#34;color&#34;:{&#34;r&#34;:0.062745101749897003,&#34;g&#34;:0.086274512112140656,&#34;b&#34;:0.12156862765550613,&#34;a&#34;:1.0},&#34;position&#34;:0.31694820523262024},{&#34;color&#34;:{&#34;r&#34;:0.062745101749897003,&#34;g&#34;:0.086274512112140656,&#34;b&#34;:0.12156862765550613,&#34;a&#34;:0.0},&#34;position&#34;:1.0}],&#34;stopsVar&#34;:[],&#34;transform&#34;:{&#34;m00&#34;:5.7653865814208984,&#34;m01&#34;:-18.257059097290039,&#34;m02&#34;:18.245897293090820,&#34;m10&#34;:-19.0,&#34;m11&#34;:-5.9999995231628418,&#34;m12&#34;:24.500001907348633},&#34;opacity&#34;:1.0,&#34;blendMode&#34;:&#34;NORMAL&#34;,&#34;visible&#34;:true}"/>
<g clip-path="url(#paint4_angular_5131_215093_clip_path)" data-figma-skip-parse="true"><g transform="matrix(0.00288269 -0.0095 -0.00912853 -0.003 12.0001 12)"><foreignObject x="-1259.45" y="-1259.45" width="2518.9" height="2518.9"><div xmlns="http://www.w3.org/1999/xhtml" style="background:conic-gradient(from 90deg,rgba(16, 22, 31, 1) 0deg,rgba(16, 22, 31, 1) 114.101deg,rgba(16, 22, 31, 0) 360deg);height:100%;width:100%;opacity:1"></div></foreignObject></g></g><path d="M5.67975 17.2964C6.329 16.4028 7.57974 16.2047 8.47336 16.854C9.36697 17.5032 9.56507 18.754 8.91582 19.6476C8.26657 20.5412 7.01583 20.7393 6.12222 20.0901C5.2286 19.4408 5.0305 18.1901 5.67975 17.2964Z" data-figma-gradient-fill="{&#34;type&#34;:&#34;GRADIENT_ANGULAR&#34;,&#34;stops&#34;:[{&#34;color&#34;:{&#34;r&#34;:0.062745101749897003,&#34;g&#34;:0.086274512112140656,&#34;b&#34;:0.12156862765550613,&#34;a&#34;:1.0},&#34;position&#34;:0.0},{&#34;color&#34;:{&#34;r&#34;:0.062745101749897003,&#34;g&#34;:0.086274512112140656,&#34;b&#34;:0.12156862765550613,&#34;a&#34;:1.0},&#34;position&#34;:0.31694820523262024},{&#34;color&#34;:{&#34;r&#34;:0.062745101749897003,&#34;g&#34;:0.086274512112140656,&#34;b&#34;:0.12156862765550613,&#34;a&#34;:0.0},&#34;position&#34;:1.0}],&#34;stopsVar&#34;:[],&#34;transform&#34;:{&#34;m00&#34;:5.7653865814208984,&#34;m01&#34;:-18.257059097290039,&#34;m02&#34;:18.245897293090820,&#34;m10&#34;:-19.0,&#34;m11&#34;:-5.9999995231628418,&#34;m12&#34;:24.500001907348633},&#34;opacity&#34;:1.0,&#34;blendMode&#34;:&#34;NORMAL&#34;,&#34;visible&#34;:true}"/>
<g clip-path="url(#paint5_angular_5131_215093_clip_path)" data-figma-skip-parse="true"><g transform="matrix(0.00288269 -0.0095 -0.00912853 -0.003 12.0001 12)"><foreignObject x="-1259.45" y="-1259.45" width="2518.9" height="2518.9"><div xmlns="http://www.w3.org/1999/xhtml" style="background:conic-gradient(from 90deg,rgba(16, 22, 31, 1) 0deg,rgba(16, 22, 31, 1) 114.101deg,rgba(16, 22, 31, 0) 360deg);height:100%;width:100%;opacity:1"></div></foreignObject></g></g><path d="M12.0001 18C10.8955 18 10.0001 18.8954 10.0001 20C10.0001 21.1046 10.8955 22 12.0001 22C13.1046 22 14.0001 21.1046 14.0001 20C14.0001 18.8954 13.1046 18 12.0001 18Z" data-figma-gradient-fill="{&#34;type&#34;:&#34;GRADIENT_ANGULAR&#34;,&#34;stops&#34;:[{&#34;color&#34;:{&#34;r&#34;:0.062745101749897003,&#34;g&#34;:0.086274512112140656,&#34;b&#34;:0.12156862765550613,&#34;a&#34;:1.0},&#34;position&#34;:0.0},{&#34;color&#34;:{&#34;r&#34;:0.062745101749897003,&#34;g&#34;:0.086274512112140656,&#34;b&#34;:0.12156862765550613,&#34;a&#34;:1.0},&#34;position&#34;:0.31694820523262024},{&#34;color&#34;:{&#34;r&#34;:0.062745101749897003,&#34;g&#34;:0.086274512112140656,&#34;b&#34;:0.12156862765550613,&#34;a&#34;:0.0},&#34;position&#34;:1.0}],&#34;stopsVar&#34;:[],&#34;transform&#34;:{&#34;m00&#34;:5.7653865814208984,&#34;m01&#34;:-18.257059097290039,&#34;m02&#34;:18.245897293090820,&#34;m10&#34;:-19.0,&#34;m11&#34;:-5.9999995231628418,&#34;m12&#34;:24.500001907348633},&#34;opacity&#34;:1.0,&#34;blendMode&#34;:&#34;NORMAL&#34;,&#34;visible&#34;:true}"/>
<g clip-path="url(#paint6_angular_5131_215093_clip_path)" data-figma-skip-parse="true"><g transform="matrix(0.00288269 -0.0095 -0.00912853 -0.003 12.0001 12)"><foreignObject x="-1259.45" y="-1259.45" width="2518.9" height="2518.9"><div xmlns="http://www.w3.org/1999/xhtml" style="background:conic-gradient(from 90deg,rgba(16, 22, 31, 1) 0deg,rgba(16, 22, 31, 1) 114.101deg,rgba(16, 22, 31, 0) 360deg);height:100%;width:100%;opacity:1"></div></foreignObject></g></g><path d="M15.0843 19.6475C14.435 18.7539 14.6331 17.5032 15.5268 16.8539C16.4204 16.2047 17.6711 16.4028 18.3204 17.2964C18.9696 18.19 18.7715 19.4408 17.8779 20.09C16.9843 20.7392 15.7335 20.5412 15.0843 19.6475Z" data-figma-gradient-fill="{&#34;type&#34;:&#34;GRADIENT_ANGULAR&#34;,&#34;stops&#34;:[{&#34;color&#34;:{&#34;r&#34;:0.062745101749897003,&#34;g&#34;:0.086274512112140656,&#34;b&#34;:0.12156862765550613,&#34;a&#34;:1.0},&#34;position&#34;:0.0},{&#34;color&#34;:{&#34;r&#34;:0.062745101749897003,&#34;g&#34;:0.086274512112140656,&#34;b&#34;:0.12156862765550613,&#34;a&#34;:1.0},&#34;position&#34;:0.31694820523262024},{&#34;color&#34;:{&#34;r&#34;:0.062745101749897003,&#34;g&#34;:0.086274512112140656,&#34;b&#34;:0.12156862765550613,&#34;a&#34;:0.0},&#34;position&#34;:1.0}],&#34;stopsVar&#34;:[],&#34;transform&#34;:{&#34;m00&#34;:5.7653865814208984,&#34;m01&#34;:-18.257059097290039,&#34;m02&#34;:18.245897293090820,&#34;m10&#34;:-19.0,&#34;m11&#34;:-5.9999995231628418,&#34;m12&#34;:24.500001907348633},&#34;opacity&#34;:1.0,&#34;blendMode&#34;:&#34;NORMAL&#34;,&#34;visible&#34;:true}"/>
<g clip-path="url(#paint7_angular_5131_215093_clip_path)" data-figma-skip-parse="true"><g transform="matrix(0.00288269 -0.0095 -0.00912853 -0.003 12.0001 12)"><foreignObject x="-1259.45" y="-1259.45" width="2518.9" height="2518.9"><div xmlns="http://www.w3.org/1999/xhtml" style="background:conic-gradient(from 90deg,rgba(16, 22, 31, 1) 0deg,rgba(16, 22, 31, 1) 114.101deg,rgba(16, 22, 31, 0) 360deg);height:100%;width:100%;opacity:1"></div></foreignObject></g></g><path d="M17.7064 13.854C17.365 14.9045 17.9399 16.0328 18.9904 16.3742C20.0409 16.7155 21.1693 16.1406 21.5106 15.0901C21.8519 14.0396 21.277 12.9113 20.2265 12.57C19.176 12.2286 18.0477 12.8035 17.7064 13.854Z" data-figma-gradient-fill="{&#34;type&#34;:&#34;GRADIENT_ANGULAR&#34;,&#34;stops&#34;:[{&#34;color&#34;:{&#34;r&#34;:0.062745101749897003,&#34;g&#34;:0.086274512112140656,&#34;b&#34;:0.12156862765550613,&#34;a&#34;:1.0},&#34;position&#34;:0.0},{&#34;color&#34;:{&#34;r&#34;:0.062745101749897003,&#34;g&#34;:0.086274512112140656,&#34;b&#34;:0.12156862765550613,&#34;a&#34;:1.0},&#34;position&#34;:0.31694820523262024},{&#34;color&#34;:{&#34;r&#34;:0.062745101749897003,&#34;g&#34;:0.086274512112140656,&#34;b&#34;:0.12156862765550613,&#34;a&#34;:0.0},&#34;position&#34;:1.0}],&#34;stopsVar&#34;:[],&#34;transform&#34;:{&#34;m00&#34;:5.7653865814208984,&#34;m01&#34;:-18.257059097290039,&#34;m02&#34;:18.245897293090820,&#34;m10&#34;:-19.0,&#34;m11&#34;:-5.9999995231628418,&#34;m12&#34;:24.500001907348633},&#34;opacity&#34;:1.0,&#34;blendMode&#34;:&#34;NORMAL&#34;,&#34;visible&#34;:true}"/>
<g clip-path="url(#paint8_angular_5131_215093_clip_path)" data-figma-skip-parse="true"><g transform="matrix(0.00288269 -0.0095 -0.00912853 -0.003 12.0001 12)"><foreignObject x="-1259.45" y="-1259.45" width="2518.9" height="2518.9"><div xmlns="http://www.w3.org/1999/xhtml" style="background:conic-gradient(from 90deg,rgba(16, 22, 31, 1) 0deg,rgba(16, 22, 31, 1) 114.101deg,rgba(16, 22, 31, 0) 360deg);height:100%;width:100%;opacity:1"></div></foreignObject></g></g><path d="M20.2265 11.43C19.1759 11.7713 18.0476 11.1964 17.7063 10.1459C17.365 9.09536 17.9399 7.96706 18.9904 7.62572C20.0409 7.28439 21.1692 7.8593 21.5105 8.9098C21.8519 9.96031 21.277 11.0886 20.2265 11.43Z" data-figma-gradient-fill="{&#34;type&#34;:&#34;GRADIENT_ANGULAR&#34;,&#34;stops&#34;:[{&#34;color&#34;:{&#34;r&#34;:0.062745101749897003,&#34;g&#34;:0.086274512112140656,&#34;b&#34;:0.12156862765550613,&#34;a&#34;:1.0},&#34;position&#34;:0.0},{&#34;color&#34;:{&#34;r&#34;:0.062745101749897003,&#34;g&#34;:0.086274512112140656,&#34;b&#34;:0.12156862765550613,&#34;a&#34;:1.0},&#34;position&#34;:0.31694820523262024},{&#34;color&#34;:{&#34;r&#34;:0.062745101749897003,&#34;g&#34;:0.086274512112140656,&#34;b&#34;:0.12156862765550613,&#34;a&#34;:0.0},&#34;position&#34;:1.0}],&#34;stopsVar&#34;:[],&#34;transform&#34;:{&#34;m00&#34;:5.7653865814208984,&#34;m01&#34;:-18.257059097290039,&#34;m02&#34;:18.245897293090820,&#34;m10&#34;:-19.0,&#34;m11&#34;:-5.9999995231628418,&#34;m12&#34;:24.500001907348633},&#34;opacity&#34;:1.0,&#34;blendMode&#34;:&#34;NORMAL&#34;,&#34;visible&#34;:true}"/>
<g clip-path="url(#paint9_angular_5131_215093_clip_path)" data-figma-skip-parse="true"><g transform="matrix(0.00288269 -0.0095 -0.00912853 -0.003 12.0001 12)"><foreignObject x="-1259.45" y="-1259.45" width="2518.9" height="2518.9"><div xmlns="http://www.w3.org/1999/xhtml" style="background:conic-gradient(from 90deg,rgba(16, 22, 31, 1) 0deg,rgba(16, 22, 31, 1) 114.101deg,rgba(16, 22, 31, 0) 360deg);height:100%;width:100%;opacity:1"></div></foreignObject></g></g><path d="M15.5267 7.14577C16.4204 7.79502 17.6711 7.59692 18.3203 6.70331C18.9696 5.80969 18.7715 4.55895 17.8779 3.9097C16.9843 3.26045 15.7335 3.45855 15.0843 4.35216C14.435 5.24578 14.6331 6.49652 15.5267 7.14577Z" data-figma-gradient-fill="{&#34;type&#34;:&#34;GRADIENT_ANGULAR&#34;,&#34;stops&#34;:[{&#34;color&#34;:{&#34;r&#34;:0.062745101749897003,&#34;g&#34;:0.086274512112140656,&#34;b&#34;:0.12156862765550613,&#34;a&#34;:1.0},&#34;position&#34;:0.0},{&#34;color&#34;:{&#34;r&#34;:0.062745101749897003,&#34;g&#34;:0.086274512112140656,&#34;b&#34;:0.12156862765550613,&#34;a&#34;:1.0},&#34;position&#34;:0.31694820523262024},{&#34;color&#34;:{&#34;r&#34;:0.062745101749897003,&#34;g&#34;:0.086274512112140656,&#34;b&#34;:0.12156862765550613,&#34;a&#34;:0.0},&#34;position&#34;:1.0}],&#34;stopsVar&#34;:[],&#34;transform&#34;:{&#34;m00&#34;:5.7653865814208984,&#34;m01&#34;:-18.257059097290039,&#34;m02&#34;:18.245897293090820,&#34;m10&#34;:-19.0,&#34;m11&#34;:-5.9999995231628418,&#34;m12&#34;:24.500001907348633},&#34;opacity&#34;:1.0,&#34;blendMode&#34;:&#34;NORMAL&#34;,&#34;visible&#34;:true}"/>
<defs>
<clipPath id="paint0_angular_5131_215093_clip_path"><path d="M12.0001 6C13.1046 6 14.0001 5.10457 14.0001 4C14.0001 2.89543 13.1046 2 12.0001 2C10.8955 2 10.0001 2.89543 10.0001 4C10.0001 5.10457 10.8955 6 12.0001 6Z"/></clipPath><clipPath id="paint1_angular_5131_215093_clip_path"><path d="M8.47334 7.14582C9.36696 6.49657 9.56505 5.24584 8.9158 4.35222C8.26656 3.4586 7.01582 3.26051 6.1222 3.90976C5.22858 4.55901 5.03049 5.80975 5.67974 6.70336C6.32899 7.59698 7.57973 7.79507 8.47334 7.14582Z"/></clipPath><clipPath id="paint2_angular_5131_215093_clip_path"><path d="M5.0096 7.6257C6.0601 7.96703 6.63501 9.09534 6.29367 10.1458C5.95234 11.1964 4.82404 11.7713 3.77353 11.4299C2.72302 11.0886 2.14812 9.96028 2.48945 8.90978C2.83078 7.85927 3.95909 7.28437 5.0096 7.6257Z"/></clipPath><clipPath id="paint3_angular_5131_215093_clip_path"><path d="M6.29369 13.854C5.95236 12.8035 4.82405 12.2286 3.77354 12.5699C2.72304 12.9113 2.14813 14.0396 2.48946 15.0901C2.8308 16.1406 3.9591 16.7155 5.00961 16.3742C6.06012 16.0328 6.63502 14.9045 6.29369 13.854Z"/></clipPath><clipPath id="paint4_angular_5131_215093_clip_path"><path d="M5.67975 17.2964C6.329 16.4028 7.57974 16.2047 8.47336 16.854C9.36697 17.5032 9.56507 18.754 8.91582 19.6476C8.26657 20.5412 7.01583 20.7393 6.12222 20.0901C5.2286 19.4408 5.0305 18.1901 5.67975 17.2964Z"/></clipPath><clipPath id="paint5_angular_5131_215093_clip_path"><path d="M12.0001 18C10.8955 18 10.0001 18.8954 10.0001 20C10.0001 21.1046 10.8955 22 12.0001 22C13.1046 22 14.0001 21.1046 14.0001 20C14.0001 18.8954 13.1046 18 12.0001 18Z"/></clipPath><clipPath id="paint6_angular_5131_215093_clip_path"><path d="M15.0843 19.6475C14.435 18.7539 14.6331 17.5032 15.5268 16.8539C16.4204 16.2047 17.6711 16.4028 18.3204 17.2964C18.9696 18.19 18.7715 19.4408 17.8779 20.09C16.9843 20.7392 15.7335 20.5412 15.0843 19.6475Z"/></clipPath><clipPath id="paint7_angular_5131_215093_clip_path"><path d="M17.7064 13.854C17.365 14.9045 17.9399 16.0328 18.9904 16.3742C20.0409 16.7155 21.1693 16.1406 21.5106 15.0901C21.8519 14.0396 21.277 12.9113 20.2265 12.57C19.176 12.2286 18.0477 12.8035 17.7064 13.854Z"/></clipPath><clipPath id="paint8_angular_5131_215093_clip_path"><path d="M20.2265 11.43C19.1759 11.7713 18.0476 11.1964 17.7063 10.1459C17.365 9.09536 17.9399 7.96706 18.9904 7.62572C20.0409 7.28439 21.1692 7.8593 21.5105 8.9098C21.8519 9.96031 21.277 11.0886 20.2265 11.43Z"/></clipPath><clipPath id="paint9_angular_5131_215093_clip_path"><path d="M15.5267 7.14577C16.4204 7.79502 17.6711 7.59692 18.3203 6.70331C18.9696 5.80969 18.7715 4.55895 17.8779 3.9097C16.9843 3.26045 15.7335 3.45855 15.0843 4.35216C14.435 5.24578 14.6331 6.49652 15.5267 7.14577Z"/></clipPath></defs>
</svg>
